<svg id="Icons" height="512" viewBox="0 0 64 64" width="512" xmlns="http://www.w3.org/2000/svg"><path d="m59.531 43.3-8.307-4.8 8.308-4.8a3.005 3.005 0 0 0 1.1-4.1l-3.878-6.7a3 3 0 0 0 -4.1-1.1l-8.307 4.8v-9.6a3 3 0 0 0 -3-3h-7.747a3 3 0 0 0 -3 3v9.592l-8.307-4.8a3 3 0 0 0 -4.1 1.1l-3.875 6.71a3.005 3.005 0 0 0 1.1 4.1l8.307 4.8-8.308 4.8a3.006 3.006 0 0 0 -1.1 4.1l3.875 6.71a3 3 0 0 0 4.1 1.1l8.307-4.8v9.588a3 3 0 0 0 3 3h7.75a3 3 0 0 0 3-3v-9.592l8.306 4.8a3 3 0 0 0 4.1-1.1l3.875-6.71a3 3 0 0 0 -1.099-4.098z" fill="#c4a2fc"/><g fill="#151a6a"><path d="m49.474 6h-28v-2a3 3 0 0 0 -6 0v2h-.292a4.977 4.977 0 0 0 -4.643 3.144l-2.739 6.856h-.326a5.006 5.006 0 0 0 -5 5v7a3 3 0 0 0 3 3h3.1a5.495 5.495 0 0 0 10.808 0h15.118a5.5 5.5 0 0 0 10.95 0h4.025a3 3 0 0 0 3-3v-19a3 3 0 0 0 -3.001-3zm1 3v12.085h-26v-13.085h25a1 1 0 0 1 1 1zm-33-5a1 1 0 0 1 2 0v2h-2zm-5.074 5.886a2.984 2.984 0 0 1 2.782-1.886h7.292v8h-12.523zm-4.926 8.114h15v3.085h-18v-.085a3 3 0 0 1 3-3zm-3 10v-4.915h18v5.915h-3.1a5.495 5.495 0 0 0 -10.804 0h-3.1a1 1 0 0 1 -.996-1zm9.5 5.5a3.5 3.5 0 1 1 3.5-3.5 3.5 3.5 0 0 1 -3.5 3.5zm26 .5a3.5 3.5 0 1 1 3.5-3.5 3.5 3.5 0 0 1 -3.5 3.5zm9.5-5h-4.213a5.494 5.494 0 0 0 -10.574 0h-10.213v-5.915h26v4.915a1 1 0 0 1 -1 1z"/><circle cx="13.974" cy="30" r="1.5"/><circle cx="39.974" cy="30.5" r="1.5"/><path d="m33.974 15.5h2.5v2.5a1 1 0 0 0 2 0v-2.5h2.5a1 1 0 0 0 0-2h-2.5v-2.5a1 1 0 0 0 -2 0v2.5h-2.5a1 1 0 0 0 0 2z"/></g></svg>