<svg id="Icons" height="512" viewBox="0 0 64 64" width="512" xmlns="http://www.w3.org/2000/svg"><path d="m45.5 35.674v-6h-4v6a1 1 0 0 1 -1 1h-6v4h6a1 1 0 0 1 1 1v6h4v-6a1 1 0 0 1 1-1h6v-4h-6a1 1 0 0 1 -1-1z" fill="#c4a2fc"/><path d="m58.785 17.285a162.089 162.089 0 0 0 -30.569 0 2.991 2.991 0 0 0 -2.716 3v28.315a5.008 5.008 0 0 0 2.117 4.085l13.576 9.582a4.006 4.006 0 0 0 4.614 0l13.576-9.583a5 5 0 0 0 2.117-4.084v-28.32a2.99 2.99 0 0 0 -2.715-2.995zm-4.285 24.389a1 1 0 0 1 -1 1h-6v6a1 1 0 0 1 -1 1h-6a1 1 0 0 1 -1-1v-6h-6a1 1 0 0 1 -1-1v-6a1 1 0 0 1 1-1h6v-6a1 1 0 0 1 1-1h6a1 1 0 0 1 1 1v6h6a1 1 0 0 1 1 1z" fill="#c4a2fc"/><path d="m47.859 13.155a3.1 3.1 0 0 0 -4.375 0l-3.523 3.523-1.278-1.278 5.906-5.906a5 5 0 0 0 -.2-7.254 5.12 5.12 0 0 0 -7.036.343l-4.547 4.553-7.174 7.174-7.174-7.173-4.552-4.553a5.118 5.118 0 0 0 -7.037-.343 5 5 0 0 0 -.194 7.254l5.905 5.905-1.28 1.278-3.521-3.523a3.093 3.093 0 0 0 -4.374 4.374l8.461 8.462a3.093 3.093 0 1 0 4.374-4.375l-3.523-3.524 1.277-1.277 6.638 6.637v20.848a5 5 0 0 0 10 0v-20.848l6.637-6.637 1.278 1.277-3.524 3.524a3.093 3.093 0 0 0 4.377 4.375l8.462-8.462a3.1 3.1 0 0 0 -.003-4.374zm-33.033 11.421a1.093 1.093 0 0 1 -1.546 0l-8.461-8.461a1.093 1.093 0 0 1 1.546-1.546l8.461 8.461a1.093 1.093 0 0 1 0 1.546zm23.946-20.576a3.16 3.16 0 0 1 4.284-.271 3 3 0 0 1 .119 4.354l-4 4.005-4.248-4.245zm-30.565-.273a3.161 3.161 0 0 1 4.284.273l3.845 3.845-4.242 4.243-4-4.005a3 3 0 0 1 .113-4.356zm17.425 43.573a3 3 0 0 1 -3-3v-11h6v11a3 3 0 0 1 -3 3zm3.293-24.972a1 1 0 0 0 -.293.707v8.265h-6v-8.262a1 1 0 0 0 -.293-.707l-8.831-8.831 4.242-4.243 7.175 7.175a1.029 1.029 0 0 0 1.414 0l7.174-7.175 4.243 4.243zm17.52-6.216-8.462 8.461a1.093 1.093 0 1 1 -1.546-1.546l8.463-8.458a1.094 1.094 0 1 1 1.547 1.546z" fill="#151a6a"/></svg>