<?xml version="1.0"?>
<svg xmlns="http://www.w3.org/2000/svg" id="Icons" viewBox="0 0 64 64" width="512" height="512"><path d="M43,43V39H39v4a1,1,0,0,1-1,1H34v4h4a1,1,0,0,1,1,1v4h4V49a1,1,0,0,1,1-1h4V44H44A1,1,0,0,1,43,43Z" style="fill:#c4a2fc"/><path d="M41.707,17.293a1,1,0,0,0-1.414,0C39.627,17.958,24,33.727,24,46a17,17,0,0,0,34,0C58,33.727,42.373,17.958,41.707,17.293ZM50,49a1,1,0,0,1-1,1H45v4a1,1,0,0,1-1,1H38a1,1,0,0,1-1-1V50H33a1,1,0,0,1-1-1V43a1,1,0,0,1,1-1h4V38a1,1,0,0,1,1-1h6a1,1,0,0,1,1,1v4h4a1,1,0,0,1,1,1Z" style="fill:#c4a2fc"/><path d="M40.949,10.684,38.405,3.051A3,3,0,0,0,35.559,1H17a3,3,0,0,0,0,6h1V9H16a1,1,0,0,0-1,1v4.051A10.013,10.013,0,0,0,6,24V48a3,3,0,0,0,3,3H33a3,3,0,0,0,3-3V24a10.013,10.013,0,0,0-9-9.949V10a1,1,0,0,0-1-1H24V7h9.613l1.438,4.316A1,1,0,0,0,36,12h4A1,1,0,0,0,40.949,10.684ZM34,41H8V28H34Zm-1,8H9a1,1,0,0,1-1-1V43H34v5A1,1,0,0,1,33,49Zm1-25v2H8V24a8.009,8.009,0,0,1,8-8H26A8.009,8.009,0,0,1,34,24ZM25,14H17V11h8ZM22,9H20V7h2Zm14.721,1L35.282,5.684A1,1,0,0,0,34.333,5H17a1,1,0,0,1,0-2H35.559a1,1,0,0,1,.948.684L38.613,10Z" style="fill:#151a6a"/></svg>
