<svg id="Icons" height="600" viewBox="0 0 64 64" width="600" xmlns="http://www.w3.org/2000/svg"><g fill="#c4a2fc"><path d="m46.854 47.525-2.829 2.829a1.5 1.5 0 0 0 0 2.121 1.537 1.537 0 0 0 2.121 0l2.829-2.829a1.5 1.5 0 1 0 -2.121-2.121z"/><path d="m44 30.167a4.333 4.333 0 1 0 4.333 4.333 4.337 4.337 0 0 0 -4.333-4.333z"/><path d="m42 19.5a21 21 0 1 0 21 21 21 21 0 0 0 -21-21zm-9.5 29a2.5 2.5 0 1 1 2.5-2.5 2.5 2.5 0 0 1 -2.5 2.5zm17.89 2.561-2.829 2.828a3.5 3.5 0 0 1 -4.951-4.95l2.829-2.828a3.585 3.585 0 0 1 4.95 0 3.5 3.5 0 0 1 .001 4.95zm1.61-15.561h-1.753a6.3 6.3 0 0 1 -1.124 2.709l1.241 1.241a1 1 0 0 1 -1.414 1.414l-1.242-1.241a6.292 6.292 0 0 1 -2.708 1.123v1.754a1 1 0 0 1 -2 0v-1.754a6.292 6.292 0 0 1 -2.708-1.123l-1.242 1.241a1 1 0 0 1 -1.414-1.414l1.241-1.241a6.3 6.3 0 0 1 -1.124-2.709h-1.753a1 1 0 0 1 0-2h1.753a6.3 6.3 0 0 1 1.124-2.709l-1.241-1.241a1 1 0 0 1 1.414-1.414l1.241 1.241a6.3 6.3 0 0 1 2.709-1.124v-1.753a1 1 0 0 1 2 0v1.753a6.3 6.3 0 0 1 2.709 1.124l1.241-1.241a1 1 0 0 1 1.414 1.414l-1.241 1.241a6.3 6.3 0 0 1 1.124 2.709h1.753a1 1 0 0 1 0 2z"/></g><path d="m49.858 2.511c-.83.323-13.876.114-18.571 13.025a.664.664 0 0 1 -.327.366.663.663 0 0 1 -.96-.593v-5.809a1 1 0 0 0 -2 0v2h-4v-2a1 1 0 0 0 -2 0v5.809a.663.663 0 0 1 -.959.594.664.664 0 0 1 -.328-.367c-4.608-12.671-17.955-12.785-18.571-13.025a1 1 0 0 0 -.99 1.52l.727 1.162a21.753 21.753 0 0 1 3.129 14.183 1 1 0 0 0 .641 1.061 11.382 11.382 0 0 1 7.351 10.607v.456a1 1 0 0 0 1 1 10.086 10.086 0 0 1 9.581 6.907l1.47 4.41a1 1 0 0 0 1.9 0l1.47-4.41a10.086 10.086 0 0 1 9.579-6.907 1 1 0 0 0 1-1v-.456a11.382 11.382 0 0 1 7.351-10.607 1 1 0 0 0 .641-1.061 21.743 21.743 0 0 1 3.129-14.182l.727-1.163a1 1 0 0 0 -.99-1.52zm-4.933 16.349a13.4 13.4 0 0 0 -7.915 11.68 12.084 12.084 0 0 0 -10.489 8.234l-.521 1.564-.522-1.564a12.081 12.081 0 0 0 -10.488-8.234 13.4 13.4 0 0 0 -7.915-11.68 23.768 23.768 0 0 0 -3.1-14.068c.182.077 10.915.571 14.861 11.427a2.664 2.664 0 0 0 5.164-.91v-1.809h4v1.809a2.663 2.663 0 0 0 5.166.91c3.934-10.811 14.688-11.353 14.862-11.427a23.768 23.768 0 0 0 -3.103 14.068z" fill="#151a6a"/></svg>