<?xml version="1.0" encoding="iso-8859-1"?>
<!-- Generator: Adobe Illustrator 19.0.0, SVG Export Plug-In . SVG Version: 6.00 Build 0)  -->
<svg version="1.1" id="Capa_1" xmlns="http://www.w3.org/2000/svg" xmlns:xlink="http://www.w3.org/1999/xlink" x="0px" y="0px"
	 viewBox="0 0 480 480" style="enable-background:new 0 0 480 480;" xml:space="preserve">
<g>
	<path style="fill:#999FED;" d="M120,32H56c-8.826,0.026-15.974,7.174-16,16v48c0.026,8.826,7.174,15.974,16,16h64
		c8.826-0.026,15.974-7.174,16-16V48C135.974,39.174,128.826,32.026,120,32z"/>
	<path style="fill:#999FED;" d="M272,200h-64c-8.826,0.026-15.974,7.174-16,16v48c0.026,8.826,7.174,15.974,16,16h64
		c8.826-0.026,15.974-7.174,16-16v-48C287.974,207.174,280.826,200.026,272,200z"/>
	<path style="fill:#999FED;" d="M424,368h-64c-8.826,0.026-15.974,7.174-16,16v48c0.026,8.826,7.174,15.974,16,16h64
		c8.826-0.026,15.974-7.174,16-16v-48C439.974,375.174,432.826,368.026,424,368z"/>
</g>
<g>
	<path style="fill:#2B3990;" d="M472,232H296v-16c0-13.255-10.745-24-24-24h-64c-13.255,0-24,10.745-24,24v16H8
		c-4.418,0-8,3.582-8,8s3.582,8,8,8h176v16c0,13.255,10.745,24,24,24h64c13.255,0,24-10.745,24-24v-16h176c4.418,0,8-3.582,8-8
		S476.418,232,472,232z M280,264c0,4.418-3.582,8-8,8h-64c-4.418,0-8-3.582-8-8v-48c0-4.418,3.582-8,8-8h64c4.418,0,8,3.582,8,8V264
		z"/>
	<path style="fill:#2B3990;" d="M472,400h-24v-16c0-13.255-10.745-24-24-24h-64c-13.255,0-24,10.745-24,24v16H8
		c-4.418,0-8,3.582-8,8s3.582,8,8,8h328v16c0,13.255,10.745,24,24,24h64c13.255,0,24-10.745,24-24v-16h24c4.418,0,8-3.582,8-8
		S476.418,400,472,400z M432,432c0,4.418-3.582,8-8,8h-64c-4.418,0-8-3.582-8-8v-48c0-4.418,3.582-8,8-8h64c4.418,0,8,3.582,8,8V432
		z"/>
	<path style="fill:#2B3990;" d="M8,80h24v16c0,13.255,10.745,24,24,24h64c13.255,0,24-10.745,24-24V80h328c4.418,0,8-3.582,8-8
		s-3.582-8-8-8H144V48c0-13.255-10.745-24-24-24H56c-13.255,0-24,10.745-24,24v16H8c-4.418,0-8,3.582-8,8S3.582,80,8,80z M48,48
		c0-4.418,3.582-8,8-8h64c4.418,0,8,3.582,8,8v48c0,4.418-3.582,8-8,8H56c-4.418,0-8-3.582-8-8V48z"/>
</g>
<g>
</g>
<g>
</g>
<g>
</g>
<g>
</g>
<g>
</g>
<g>
</g>
<g>
</g>
<g>
</g>
<g>
</g>
<g>
</g>
<g>
</g>
<g>
</g>
<g>
</g>
<g>
</g>
<g>
</g>
</svg>
