<?xml version="1.0"?>
<svg xmlns="http://www.w3.org/2000/svg" id="Icons" viewBox="0 0 64 64" width="512" height="512"><path d="M37,43a5,5,0,1,0,5,5A5.006,5.006,0,0,0,37,43Zm-2.12,4.64A1.12,1.12,0,1,1,36,46.52,1.119,1.119,0,0,1,34.88,47.64Zm2.16,3.92a1.04,1.04,0,1,1,1.04-1.04A1.04,1.04,0,0,1,37.04,51.56ZM38.62,48a.9.9,0,1,1,.9-.9A.9.9,0,0,1,38.62,48Z" style="fill:#c4a2fc"/><circle cx="45.5" cy="32.5" r="2.667" style="fill:#c4a2fc"/><path d="M40,21A21,21,0,1,0,61,42,21.023,21.023,0,0,0,40,21Zm6,28H43.92A6.947,6.947,0,0,1,42.6,52.184l1.473,1.473a1,1,0,1,1-1.414,1.414L41.184,53.6A6.947,6.947,0,0,1,38,54.92V57a1,1,0,0,1-2,0V54.92A6.947,6.947,0,0,1,32.816,53.6l-1.473,1.473a1,1,0,0,1-1.414-1.414L31.4,52.184A6.947,6.947,0,0,1,30.08,49H28a1,1,0,0,1,0-2h2.08A6.947,6.947,0,0,1,31.4,43.816l-1.473-1.473a1,1,0,0,1,1.414-1.414L32.816,42.4A6.947,6.947,0,0,1,36,41.08V39a1,1,0,0,1,2,0v2.08A6.947,6.947,0,0,1,41.184,42.4l1.473-1.473a1,1,0,0,1,1.414,1.414L42.6,43.816A6.947,6.947,0,0,1,43.92,47H46a1,1,0,0,1,0,2Zm5-15.5h-.947a4.634,4.634,0,0,1-.631,1.509l.674.673A1,1,0,1,1,48.682,37.1l-.674-.674a4.629,4.629,0,0,1-1.508.631V38a1,1,0,0,1-2,0v-.947a4.629,4.629,0,0,1-1.508-.631l-.674.674A1,1,0,0,1,40.9,35.682l.674-.673a4.634,4.634,0,0,1-.631-1.509H40a1,1,0,0,1,0-2h.947a4.634,4.634,0,0,1,.631-1.509l-.674-.673A1,1,0,0,1,42.318,27.9l.674.674a4.629,4.629,0,0,1,1.508-.631V27a1,1,0,0,1,2,0v.947a4.629,4.629,0,0,1,1.508.631l.674-.674A1,1,0,0,1,50.1,29.318l-.674.673a4.634,4.634,0,0,1,.631,1.509H51a1,1,0,0,1,0,2Z" style="fill:#c4a2fc"/><path d="M34.3,1H14.6A7.011,7.011,0,0,0,7.65,7.132L7.406,9.084a5.365,5.365,0,0,0-4.214,6.691l6.1,22.319L8.3,49.917A1,1,0,0,0,9.3,51h15a1,1,0,0,0,.97-1.243L23.58,43H29.3a3,3,0,0,0,3-3V37a1,1,0,0,0-.835-.986l-4.094-.682a.427.427,0,0,1-.312-.613,3.041,3.041,0,0,1,2.756-1.658l2.805.068a.974.974,0,0,0,.752-.314,1,1,0,0,0,.269-.769L33.386,29h1.5a2.414,2.414,0,0,0,1.707-4.121l-4.008-4.008a1,1,0,0,1-.293-.7l-.04-3.955,3.087-.463A6.957,6.957,0,0,0,41.3,8.833V8A7.008,7.008,0,0,0,34.3,1ZM30.291,20.193a2.985,2.985,0,0,0,.879,2.092l4.008,4.007a.421.421,0,0,1,.121.294.414.414,0,0,1-.414.414H32.3a1,1,0,0,0-1,1.083l.252,3.02-1.692-.041a5.028,5.028,0,0,0-4.594,2.762,2.427,2.427,0,0,0,1.772,3.48l3.258.543V40a1,1,0,0,1-1,1H21.83a3,3,0,0,1-2.977-2.628l-.562-4.5a1,1,0,1,0-1.984.248l.562,4.5a4.994,4.994,0,0,0,4.642,4.35L23.018,49H10.386l.9-10.767,3.945-9.861a1,1,0,0,0-.612-1.321A3.383,3.383,0,0,1,12.3,23.838V20.411a1.41,1.41,0,0,1,2.707-.556l1.94,4.524A2.673,2.673,0,0,0,22.056,23l-.522-4.182a1,1,0,0,1,.843-1.114l7.877-1.181ZM39.3,8.833a4.971,4.971,0,0,1-4.258,4.945L22.08,15.722a2.982,2.982,0,0,0-2.531,3.339l.523,4.182a.674.674,0,0,1-1.288.349h0l-1.94-4.524A3.41,3.41,0,0,0,10.3,20.411v3.427a5.381,5.381,0,0,0,2.716,4.679L10.478,34.86,5.122,15.248A3.362,3.362,0,0,1,8.314,11a1,1,0,0,0,.977-.876L9.635,7.38A5.007,5.007,0,0,1,14.6,3H34.3a5.006,5.006,0,0,1,5,5Z" style="fill:#151a6a"/></svg>
