<?xml version="1.0"?>
<svg xmlns="http://www.w3.org/2000/svg" id="Icons" viewBox="0 0 64 64" width="512" height="512"><path d="M44.833,38.667V34H40.167v4.667a1,1,0,0,1-1,1H34.5v4.666h4.667a1,1,0,0,1,1,1V50h4.666V45.333a1,1,0,0,1,1-1H50.5V39.667H45.833A1,1,0,0,1,44.833,38.667Z" style="fill:#c4a2fc"/><path d="M56.5,21h-5V20a2,2,0,0,0-2-2H47.4a5,5,0,0,0-9.8,0H35.5a2,2,0,0,0-2,2v1h-5a3,3,0,0,0-3,3V60a3,3,0,0,0,3,3h28a3,3,0,0,0,3-3V24A3,3,0,0,0,56.5,21Zm-21-1h3a1,1,0,0,0,1-1,3,3,0,0,1,6,0,1,1,0,0,0,1,1h3v4h-14Zm17,25.333a1,1,0,0,1-1,1H46.833V51a1,1,0,0,1-1,1H39.167a1,1,0,0,1-1-1V46.333H33.5a1,1,0,0,1-1-1V38.667a1,1,0,0,1,1-1h4.667V33a1,1,0,0,1,1-1h6.666a1,1,0,0,1,1,1v4.667H51.5a1,1,0,0,1,1,1Z" style="fill:#c4a2fc"/><path d="M41.613,36.059a7.044,7.044,0,0,0-4.842-6.275l-3.1-1a6.947,6.947,0,0,0-3.493-1.967l-2.793-.62v-.08l1.13-.565c5-2.5,3.668-7.961,3.87-9.026l1.242-3.567A8.994,8.994,0,0,0,25.129,1H22.386a4.008,4.008,0,0,0-3.941,3.309c-3.52-1.273-6.39,2.421-5.529,6.026l1.47,6.141c.214,1.136-1.21,6.535,3.87,9.077l1.13.565v.08l-2.793.62A6.943,6.943,0,0,0,13.1,28.785l-3.1,1a7.042,7.042,0,0,0-4.842,6.275L4.505,47.833A3,3,0,0,0,7.5,51H39.272a3,3,0,0,0,3-3.167ZM25.386,29.553a3.318,3.318,0,0,1-4,0V27.1a4.928,4.928,0,0,0,4,0Zm-5.157,1.606a5.139,5.139,0,0,0,6.314,0,2.723,2.723,0,0,1,1.362,2.809L25.531,49H21.24L18.867,33.968A2.723,2.723,0,0,1,20.229,31.159ZM17.085,6.07a2,2,0,0,1,1.108.336l.638.426A1,1,0,0,0,20.386,6V5a2,2,0,0,1,2-2h2.743a7,7,0,0,1,6.61,9.3l-.445,1.279A1,1,0,0,0,30.386,13H23.858a2.984,2.984,0,0,1-2.683-1.658L20.28,9.553a1,1,0,0,0-1.741-.085l-2.734,4.345L14.861,9.87C14.461,8.193,15.356,6.07,17.085,6.07Zm-.7,10.575,2.9-4.608A5.039,5.039,0,0,0,23.858,15h5.866l.662,1.56c-.219,1.316.979,5.332-2.764,7.2l-2.894,1.447a3.016,3.016,0,0,1-2.684,0L19.15,23.764C15.441,21.909,16.587,17.834,16.386,16.645ZM6.5,47.944,7.156,36.17a5.027,5.027,0,0,1,3.458-4.482l.876-.282a6.923,6.923,0,0,0-.308,3.236l.214,1.5a1,1,0,0,0,.673.806l1.759.586-1.274,1.911a1,1,0,0,0-.1.926L15.909,49H12.386V46a1,1,0,0,0-2,0v3H7.5A1,1,0,0,1,6.5,47.944ZM18.063,49,14.51,40.117l1.708-2.562a1,1,0,0,0-.516-1.5l-2.414-.8-.127-.889a5.022,5.022,0,0,1,3.866-5.587l2.359-.524V29.34a4.715,4.715,0,0,0-2.5,4.94L19.215,49Zm9.493,0,2.325-14.72a4.717,4.717,0,0,0-2.5-4.94V28.247l2.359.524a5.021,5.021,0,0,1,3.865,5.587l-.126.889-2.415.8a1,1,0,0,0-.515,1.5l1.708,2.562L28.709,49Zm11.716,0H36.386V46a1,1,0,0,0-2,0v3H30.863l3.452-8.629a1,1,0,0,0-.1-.926l-1.274-1.911,1.758-.586a1,1,0,0,0,.674-.806l.214-1.5a6.923,6.923,0,0,0-.308-3.236l.876.282a5.028,5.028,0,0,1,3.458,4.482l.654,11.774A1,1,0,0,1,39.272,49Z" style="fill:#151a6a"/></svg>
