<?xml version="1.0"?>
<svg xmlns="http://www.w3.org/2000/svg" id="Icons" viewBox="0 0 64 64" width="512" height="512"><path d="M45,37.79v-7H39v7a1,1,0,0,1-1,1H31v6h7a1,1,0,0,1,1,1v7h6v-7a1,1,0,0,1,1-1h7v-6H46A1,1,0,0,1,45,37.79Z" style="fill:#c4a2fc"/><path d="M30.687,24.105l-8.134-3.051a1,1,0,0,0-1.288,1.288l3.049,8.134A21,21,0,1,0,63,41.79C63,25.105,44.5,15.247,30.687,24.105ZM55,45.79a1,1,0,0,1-1,1H47v7a1,1,0,0,1-1,1H38a1,1,0,0,1-1-1v-7H30a1,1,0,0,1-1-1v-8a1,1,0,0,1,1-1h7v-7a1,1,0,0,1,1-1h8a1,1,0,0,1,1,1v7h7a1,1,0,0,1,1,1Z" style="fill:#c4a2fc"/><path d="M31.633,7.756H26.009a1,1,0,0,0,0,2h5.624a3.36,3.36,0,0,1,3.358,3.357v28.32a3.361,3.361,0,0,1-3.358,3.357H22.7V36.9a3,3,0,0,0-3-3H17.16a3,3,0,0,0-2.871,2.179H11.8A1.179,1.179,0,0,1,10.624,34.9V15.291A1.179,1.179,0,0,1,11.8,14.113h2.486a3,3,0,0,0,2.871,2.178H19.7a3,3,0,0,0,3-3V4.22a3,3,0,0,0-3-3H17.16A3,3,0,0,0,14.289,3.4H8.535A7.543,7.543,0,0,0,1,10.934V39.255A7.543,7.543,0,0,0,8.535,46.79h5.754a3,3,0,0,0,2.871,2.179H19.7a3,3,0,0,0,2.872-2.179h9.066a5.364,5.364,0,0,0,5.358-5.357V13.113A5.364,5.364,0,0,0,31.633,7.756ZM16.16,4.22a1,1,0,0,1,1-1H19.7a1,1,0,0,1,1,1v9.071a1,1,0,0,1-1,1H17.16a1,1,0,0,1-1-1V4.22ZM3,39.255V10.934A5.541,5.541,0,0,1,8.535,5.4H14.16v6.714H11.8a3.182,3.182,0,0,0-3.179,3.178V34.9A3.182,3.182,0,0,0,11.8,38.076H14.16V44.79H8.535A5.542,5.542,0,0,1,3,39.255Zm17.7,6.714a1,1,0,0,1-1,1H17.16a1,1,0,0,1-1-1V36.9a1,1,0,0,1,1-1H19.7a1,1,0,0,1,1,1Z" style="fill:#151a6a"/></svg>
