<svg id="Icons" height="512" viewBox="0 0 64 64" width="512" xmlns="http://www.w3.org/2000/svg"><g fill="#c4a2fc"><circle cx="45.5" cy="45" r="3"/><path d="m32.5 38v14h26v-14zm13 12a5 5 0 1 1 5-5 5.006 5.006 0 0 1 -5 5z"/><path d="m33.5 20h9v5h-3a7.008 7.008 0 0 0 -7 7v4h26v-4a7.008 7.008 0 0 0 -7-7h-3v-5h1a3 3 0 0 0 0-6h-16a3 3 0 0 0 0 6zm11 0h2v5h-2z"/><path d="m32.5 54v6a3 3 0 0 0 3 3h20a3 3 0 0 0 3-3v-6z"/></g><path d="m52.5 17a4 4 0 0 0 -4-4h-.556a3.959 3.959 0 0 0 .556-2 4 4 0 0 0 -4-4h-9.556a3.959 3.959 0 0 0 .556-2 4 4 0 0 0 -4-4h-7.667a5.027 5.027 0 0 0 -3 1l-5.866 4.4a3.02 3.02 0 0 1 -1.8.6h-4.667a3 3 0 0 0 -3 3v17a3 3 0 0 0 3 3h5.056a3 3 0 0 1 1.341.317l2.311 1.155a5.028 5.028 0 0 0 2.236.528h21.556a3.5 3.5 0 0 0 3.5-3.5 3.464 3.464 0 0 0 -.351-1.5h1.351a3.977 3.977 0 0 0 3.421-6.043 3.99 3.99 0 0 0 3.579-3.957zm-4 2h-18a1 1 0 0 0 0 2h15a2 2 0 0 1 0 4h-16a1 1 0 0 0 0 2h11.5a1.5 1.5 0 0 1 0 3h-21.556a3 3 0 0 1 -1.341-.317l-2.311-1.155a5.028 5.028 0 0 0 -2.236-.528h-5.056a1 1 0 0 1 -1-1v-17a1 1 0 0 1 1-1h4.667a5.027 5.027 0 0 0 3-1l5.867-4.4a3.02 3.02 0 0 1 1.8-.6h7.666a2 2 0 0 1 0 4h-7a1 1 0 0 0 0 2h20a2 2 0 0 1 0 4h-14a1 1 0 0 0 0 2h18a2 2 0 0 1 0 4z" fill="#151a6a"/></svg>