<?xml version="1.0"?>
<svg xmlns="http://www.w3.org/2000/svg" id="Icons" viewBox="0 0 64 64" width="512" height="512"><path d="M56.849,39.051A12.251,12.251,0,0,0,49.7,37.44a12.3,12.3,0,0,0-3.8-18.3,1,1,0,0,0-1.208,1.564,6.539,6.539,0,1,1-9.467,0,1,1,0,0,0-1.208-1.564,12.3,12.3,0,0,0-3.8,18.3,12.309,12.309,0,0,0-13.29,12.713,1,1,0,0,0,1.975.186c.079-.1,1.773-6.371,7.858-4.742A6.376,6.376,0,0,1,28.3,57.278a6.3,6.3,0,0,1-5.785.292,1,1,0,0,0-1.037,1.69,12.371,12.371,0,0,0,13.9,1.109,12.225,12.225,0,0,0,4.581-4.658,12.235,12.235,0,0,0,4.582,4.658,12.374,12.374,0,0,0,13.9-1.109,1,1,0,0,0-1.037-1.69A6.372,6.372,0,1,1,53.159,45.6c5.672-1.522,7.781,4.649,7.862,4.752a1.01,1.01,0,0,0,1.071.764,1,1,0,0,0,.9-.96A12.29,12.29,0,0,0,56.849,39.051Zm-16.89,7.968a2.376,2.376,0,1,1,2.376-2.376A2.377,2.377,0,0,1,39.959,47.019Z" style="fill:#c4a2fc"/><path d="M33,12H19a3,3,0,0,0-3,3v5a3,3,0,0,0,2.271,2.9,11.473,11.473,0,0,0,3.748,4.864A2.988,2.988,0,0,0,24,33h4a2.988,2.988,0,0,0,1.981-5.236A11.256,11.256,0,0,0,33.729,22.9,3,3,0,0,0,36,20V15A3,3,0,0,0,33,12ZM28,31H24a1,1,0,0,1,0-2h4a1,1,0,0,1,0,2Zm-.333-4H24.333a10.985,10.985,0,0,1-3.942-4.261A11.222,11.222,0,0,0,23,21a5.138,5.138,0,0,1,6,0,11.219,11.219,0,0,0,2.609,1.739A10.979,10.979,0,0,1,27.667,27ZM34,20a1,1,0,0,1-1,1c-1.042,0-1.473-.7-2.8-1.6a7.007,7.007,0,0,0-8.4,0c-1.3.879-1.761,1.6-2.8,1.6a1,1,0,0,1-1-1V15a1,1,0,0,1,1-1H33a1,1,0,0,1,1,1Z" style="fill:#151a6a"/><path d="M45.725,31.958l-3.967-1.8A3,3,0,0,1,40,27.425V14.217A12.209,12.209,0,0,0,27.783,2H24.217A12.209,12.209,0,0,0,12,14.217V27.425a3,3,0,0,1-1.759,2.73l-3.966,1.8A9.021,9.021,0,0,0,1,40.151V49a3,3,0,0,0,3,3H48a3,3,0,0,0,3-3V40.151A9.021,9.021,0,0,0,45.725,31.958ZM49,49a1,1,0,0,1-1,1H39V43a1,1,0,0,0-2,0v7H15V43a1,1,0,0,0-2,0v7H4a1,1,0,0,1-1-1V40.151a7.018,7.018,0,0,1,4.1-6.373l3.966-1.8A5.008,5.008,0,0,0,14,27.425V14.217A10.211,10.211,0,0,1,24.217,4h3.566A10.21,10.21,0,0,1,38,14.217V27.425a5.008,5.008,0,0,0,2.931,4.551l3.965,1.8A7.016,7.016,0,0,1,49,40.151Z" style="fill:#151a6a"/></svg>
