<svg id="Icons" height="512" viewBox="0 0 64 64" width="512" xmlns="http://www.w3.org/2000/svg"><path d="m49 42v-5h-6v5a1 1 0 0 1 -1 1h-5v6h5a1 1 0 0 1 1 1v5h6v-5a1 1 0 0 1 1-1h5v-6h-5a1 1 0 0 1 -1-1z" fill="#c4a2fc"/><path d="m46 29a17 17 0 1 0 17 17 17.019 17.019 0 0 0 -17-17zm11 21a1 1 0 0 1 -1 1h-5v5a1 1 0 0 1 -1 1h-8a1 1 0 0 1 -1-1v-5h-5a1 1 0 0 1 -1-1v-8a1 1 0 0 1 1-1h5v-5a1 1 0 0 1 1-1h8a1 1 0 0 1 1 1v5h5a1 1 0 0 1 1 1z" fill="#c4a2fc"/><g fill="#151a6a"><path d="m50 25h-11v-14h1a1 1 0 0 0 0-2h-5v-5a3 3 0 0 0 -3-3h-12a3 3 0 0 0 -3 3v5h-5a1 1 0 0 0 0 2h1v14h-11a1 1 0 0 0 0 2h1v23a1 1 0 0 0 1 1h44a1 1 0 0 0 1-1v-23h1a1 1 0 0 0 0-2zm-31-21a1 1 0 0 1 1-1h12a1 1 0 0 1 1 1v8a1 1 0 0 1 -1 1h-12a1 1 0 0 1 -1-1zm-14 23h8v22h-8zm10-16h2v1a3 3 0 0 0 3 3h12a3 3 0 0 0 3-3v-1h2v38h-4v-7h1a1 1 0 0 0 0-2h-16a1 1 0 0 0 0 2h1v7h-4zm6 31h4v7h-4zm6 7v-7h4v7zm20 0h-8v-22h8z"/><path d="m24 9h1v1a1 1 0 0 0 2 0v-1h1a1 1 0 0 0 0-2h-1v-1a1 1 0 0 0 -2 0v1h-1a1 1 0 0 0 0 2z"/><path d="m18 25h6a1 1 0 0 0 1-1v-6a1 1 0 0 0 -1-1h-6a1 1 0 0 0 -1 1v6a1 1 0 0 0 1 1zm1-6h4v4h-4z"/><path d="m28 25h6a1 1 0 0 0 1-1v-6a1 1 0 0 0 -1-1h-6a1 1 0 0 0 -1 1v6a1 1 0 0 0 1 1zm1-6h4v4h-4z"/><path d="m18 35h6a1 1 0 0 0 1-1v-6a1 1 0 0 0 -1-1h-6a1 1 0 0 0 -1 1v6a1 1 0 0 0 1 1zm1-6h4v4h-4z"/><path d="m28 35h6a1 1 0 0 0 1-1v-6a1 1 0 0 0 -1-1h-6a1 1 0 0 0 -1 1v6a1 1 0 0 0 1 1zm1-6h4v4h-4z"/></g></svg>