<svg id="Icons" height="512" viewBox="0 0 64 64" width="512" xmlns="http://www.w3.org/2000/svg"><path d="m60 32h-10v-10a3 3 0 0 0 -3-3h-10a3 3 0 0 0 -3 3v10h-10a3 3 0 0 0 -3 3v10a3 3 0 0 0 3 3h10v10a3 3 0 0 0 3 3h10a3 3 0 0 0 3-3v-10h10a3 3 0 0 0 3-3v-10a3 3 0 0 0 -3-3z" fill="#c4a2fc"/><g fill="#151a6a"><path d="m24 25.5a1 1 0 0 0 0-2h-12a1 1 0 0 0 0 2z"/><path d="m26 28.5h-16a1 1 0 0 0 0 2h16a1 1 0 0 0 0-2z"/><path d="m26 18.5h-16a1 1 0 0 0 0 2h16a1 1 0 0 0 0-2z"/><path d="m48 19.142v-11.142a5 5 0 0 0 -10 0v38a5.006 5.006 0 0 1 -5 5h-9a5 5 0 0 1 -4.917-4.183 3.446 3.446 0 0 0 2.29-2.582l.447-2.235h8.18a5.006 5.006 0 0 0 5-5v-25a5.006 5.006 0 0 0 -5-5h-7.1a5 5 0 0 0 -9.8 0h-7.1a5.006 5.006 0 0 0 -5 5v25a5.006 5.006 0 0 0 5 5h8.18l.447 2.235a3.442 3.442 0 0 0 2.431 2.62 7.006 7.006 0 0 0 6.942 6.145h9a7.008 7.008 0 0 0 7-7v-38a3 3 0 0 1 6 0v11.142a4 4 0 0 0 -3 3.858v5a4 4 0 0 0 3 3.858v5.142a1 1 0 0 0 2 0v-5.142a4 4 0 0 0 3-3.858v-5a4 4 0 0 0 -3-3.858zm-45-7.142a3 3 0 0 1 3-3h8a1 1 0 0 0 1-1 3 3 0 0 1 6 0 1 1 0 0 0 1 1h8a3 3 0 0 1 3 3v15h-2v-14a2 2 0 0 0 -2-2h-22a2 2 0 0 0 -2 2v14h-2zm26 24h-22v-23h22zm-23 4a3 3 0 0 1 -3-3v-8h2v7a2 2 0 0 0 2 2h22a2 2 0 0 0 2-2v-7h2v8a3 3 0 0 1 -3 3zm12 5a1.444 1.444 0 0 1 -1.412-1.157l-.368-1.843h3.56l-.368 1.843a1.444 1.444 0 0 1 -1.412 1.157zm31-17a2 2 0 0 1 -4 0v-5a2 2 0 0 1 4 0z"/></g></svg>