<svg id="Icons" height="512" viewBox="0 0 64 64" width="512" xmlns="http://www.w3.org/2000/svg"><g fill="#c4a2fc"><rect height="10" rx="3" width="24" x="38" y="17.5"/><path d="m47 39.5h16v13h-16z"/><path d="m60.333 32a4.648 4.648 0 0 1 -1.682-2.5h-17.3a4.651 4.651 0 0 1 -1.683 2.5 6.7 6.7 0 0 0 -2.668 5.334v17.166a5.006 5.006 0 0 0 5 5h16a5.006 5.006 0 0 0 5-5h-17a1 1 0 0 1 -1-1v-15a1 1 0 0 1 1-1h17v-.166a6.7 6.7 0 0 0 -2.667-5.334z"/><path d="m21 56.25a3.25 3.25 0 0 0 3.25 3.25h3.25v-6.5h-3.25a3.25 3.25 0 0 0 -3.25 3.25z"/><path d="m32.75 53h-3.25v6.5h3.25a3.25 3.25 0 0 0 0-6.5z"/><path d="m13 48.25a3.25 3.25 0 0 0 3.25 3.25h3.25v-6.5h-3.25a3.25 3.25 0 0 0 -3.25 3.25z"/><path d="m24.75 45h-3.25v6.5h3.25a3.25 3.25 0 0 0 0-6.5z"/></g><path d="m40 13.5h-7v-6a3 3 0 0 0 -3-3h-16a3 3 0 0 0 -3 3v6h-7a3 3 0 0 0 -3 3v24a3 3 0 0 0 3 3h36a3 3 0 0 0 3-3v-24a3 3 0 0 0 -3-3zm-26-7h16a1 1 0 0 1 1 1v1h-18v-1a1 1 0 0 1 1-1zm-1 4h18v3h-18zm-10 6a1 1 0 0 1 1-1h36a1 1 0 0 1 1 1v5h-5v-2a2 2 0 0 0 -2-2h-2a2 2 0 0 0 -2 2v2h-16v-2a2 2 0 0 0 -2-2h-2a2 2 0 0 0 -2 2v2h-5zm31 9h-2v-6h2zm-22 0h-2v-6h2zm28 16h-36a1 1 0 0 1 -1-1v-17h5v2a2 2 0 0 0 2 2h2a2 2 0 0 0 2-2v-2h16v2a2 2 0 0 0 2 2h2a2 2 0 0 0 2-2v-2h5v17a1 1 0 0 1 -1 1z" fill="#151a6a"/><path d="m27 29.5h-2v-2a2 2 0 0 0 -2-2h-2a2 2 0 0 0 -2 2v2h-2a2 2 0 0 0 -2 2v2a2 2 0 0 0 2 2h2v2a2 2 0 0 0 2 2h2a2 2 0 0 0 2-2v-2h2a2 2 0 0 0 2-2v-2a2 2 0 0 0 -2-2zm0 4h-3a1 1 0 0 0 -1 1v3h-2v-3a1 1 0 0 0 -1-1h-3v-2h3a1 1 0 0 0 1-1v-3h2v3a1 1 0 0 0 1 1h3z" fill="#151a6a"/></svg>