<svg id="Icons" height="512" viewBox="0 0 64 64" width="512" xmlns="http://www.w3.org/2000/svg"><g fill="#c4a2fc"><path d="m45 28.812c-9.57-4.764-13.3-6.705-14-6.952v34.188c9.512 4.734 13.3 6.7 14 6.952z"/><path d="m29 21.859c-.616.218 2.311-1.167-14.342 7.123a2.986 2.986 0 0 0 -1.658 2.684v27.527a3 3 0 0 0 4.342 2.684l11.658-5.83z"/><path d="m58.658 22.982-11.658 5.83v34.188c.616-.218-2.244 1.134 14.342-7.123a2.986 2.986 0 0 0 1.658-2.684v-27.527a3 3 0 0 0 -4.342-2.684z"/></g><path d="m30 18a12 12 0 1 0 -12 12 12.013 12.013 0 0 0 12-12zm-22 0a10 10 0 1 1 10 10 10.011 10.011 0 0 1 -10-10z" fill="#151a6a"/><path d="m19 25v-2.177a3.747 3.747 0 0 0 1.479-.93l1.056 1.056a1 1 0 0 0 1.414-1.414l-1.363-1.363a5.7 5.7 0 0 0 .333-1.172h2.081a1 1 0 0 0 0-2h-2.081a5.7 5.7 0 0 0 -.333-1.172l1.363-1.363a1 1 0 1 0 -1.414-1.414l-1.056 1.056a3.747 3.747 0 0 0 -1.479-.93v-2.177a1 1 0 0 0 -2 0v2.177a3.747 3.747 0 0 0 -1.479.93l-1.056-1.056a1 1 0 1 0 -1.414 1.414l1.363 1.363a5.7 5.7 0 0 0 -.333 1.172h-2.081a1 1 0 0 0 0 2h2.081a5.7 5.7 0 0 0 .333 1.172l-1.363 1.363a1 1 0 1 0 1.414 1.414l1.056-1.056a3.747 3.747 0 0 0 1.479.93v2.177a1 1 0 0 0 2 0zm-3-7c0-1.626.916-3 2-3s2 1.374 2 3-.916 3-2 3-2-1.374-2-3z" fill="#151a6a"/><path d="m22.559 43.32c4.86-4.758 12.441-13.994 12.441-25.32a17 17 0 0 0 -34 0c0 11.326 7.581 20.562 12.441 25.32-2.719.402-6.441 1.373-6.441 3.68 0 2.748 5.7 4 11 4s11-1.252 11-4c0-2.307-3.722-3.278-6.441-3.68zm-19.559-25.32a15 15 0 0 1 30 0c0 13.562-12.134 24.36-15 26.721-2.866-2.361-15-13.159-15-26.721zm15 31c-5.851 0-8.85-1.46-9-1.984.1-.372 1.877-1.528 6.367-1.9 1.129 1 1.9 1.585 2.035 1.688a1 1 0 0 0 1.2 0c.136-.1.906-.69 2.035-1.688 4.49.376 6.265 1.531 6.367 1.873-.154.551-3.153 2.011-9.004 2.011z" fill="#151a6a"/></svg>