<svg id="Icons" height="512" viewBox="0 0 64 64" width="512" xmlns="http://www.w3.org/2000/svg"><path d="m42 15.5a21 21 0 1 0 21 21 21.023 21.023 0 0 0 -21-21zm11.345 17.235-12.224 10.149a2 2 0 0 1 -2.334.159l-7.91-4.917a2 2 0 0 1 2.111-3.4l6.686 4.156 11.116-9.225a2 2 0 0 1 2.555 3.078z" fill="#c4a2fc"/><g fill="#151a6a"><path d="m42 14.2h-1.1a5.009 5.009 0 0 0 -4.9-4h-.888a8.231 8.231 0 0 1 -4.876-1.612l-.12-.09a10.234 10.234 0 0 0 -12.2.049 8.228 8.228 0 0 1 -4.93 1.653h-.986a5.009 5.009 0 0 0 -4.9 4h-1.1a5.006 5.006 0 0 0 -5 5v2a5.006 5.006 0 0 0 5 5h1.221a6.951 6.951 0 0 0 3.649 4.553l3.738 1.87a21.1 21.1 0 0 0 18.784 0l3.739-1.87a6.953 6.953 0 0 0 3.648-4.553h1.221a5.006 5.006 0 0 0 5-5v-2a5.006 5.006 0 0 0 -5-5zm-39 7v-2a3 3 0 0 1 3-3h1v8h-1a3 3 0 0 1 -3-3zm33.236 7.76-3.736 1.87a19.092 19.092 0 0 1 -16.994 0l-3.739-1.87a4.973 4.973 0 0 1 -2.767-4.472v-9.288a3 3 0 0 1 3-3h.981a10.239 10.239 0 0 0 6.136-2.057 8.217 8.217 0 0 1 9.805-.04l.12.089a10.248 10.248 0 0 0 6.07 2.008h.888a3 3 0 0 1 3 3v9.292a4.973 4.973 0 0 1 -2.764 4.468zm8.764-7.76a3 3 0 0 1 -3 3h-1v-8h1a3 3 0 0 1 3 3z"/><path d="m35.553 23.3a24.652 24.652 0 0 1 -23.106 0 1 1 0 1 0 -.894 1.789 27.641 27.641 0 0 0 12.447 3.099 27.641 27.641 0 0 0 12.447-3.1 1 1 0 1 0 -.894-1.789z"/><path d="m11.853 21.186a82.736 82.736 0 0 0 12.147.9 82.712 82.712 0 0 0 12.146-.9 1 1 0 0 0 -.292-1.979 80.635 80.635 0 0 1 -23.707 0 1 1 0 0 0 -.294 1.979z"/><path d="m12.165 17.183a71.832 71.832 0 0 1 23.671 0 1.028 1.028 0 0 0 .164.017 1 1 0 0 0 .163-1.986 73.8 73.8 0 0 0 -24.329 0 1 1 0 0 0 .33 1.973z"/></g></svg>