<?xml version="1.0" encoding="iso-8859-1"?>
<!-- Generator: Adobe Illustrator 19.0.0, SVG Export Plug-In . SVG Version: 6.00 Build 0)  -->
<svg version="1.1" id="Capa_1" xmlns="http://www.w3.org/2000/svg" xmlns:xlink="http://www.w3.org/1999/xlink" x="0px" y="0px"
	 viewBox="0 0 480.065 480.065" style="enable-background:new 0 0 480.065 480.065;" xml:space="preserve">
<g>
	<circle style="fill:#999FED;" cx="240.033" cy="240.033" r="64"/>
	<circle style="fill:#999FED;" cx="408.033" cy="408.033" r="64"/>
	<circle style="fill:#999FED;" cx="72.033" cy="72.033" r="64"/>
</g>
<g>
	<path style="fill:#2B3990;" d="M472.033,232.033H311.561c-4.546-39.504-40.255-67.843-79.759-63.297
		c-33.245,3.826-59.472,30.052-63.297,63.297H8.033c-4.418,0-8,3.582-8,8s3.582,8,8,8h160.472
		c4.546,39.504,40.255,67.843,79.759,63.297c33.245-3.826,59.472-30.052,63.297-63.297h160.472c4.418,0,8-3.582,8-8
		S476.451,232.033,472.033,232.033z M240.033,296.033c-30.928,0-56-25.072-56-56s25.072-56,56-56s56,25.072,56,56
		C295.997,270.946,270.946,295.997,240.033,296.033z"/>
	<path style="fill:#2B3990;" d="M408.033,336.033c-36.643,0.053-67.417,27.588-71.528,64H8.033c-4.418,0-8,3.582-8,8s3.582,8,8,8
		h328.472c4.418,39.518,40.036,67.972,79.554,63.554s67.972-40.036,63.554-79.554C475.537,363.581,444.711,336.019,408.033,336.033z
		 M408.033,464.033c-30.928,0-56-25.072-56-56s25.072-56,56-56s56,25.072,56,56C463.997,438.946,438.946,463.997,408.033,464.033z"
		/>
	<path style="fill:#2B3990;" d="M72.033,144.033c36.643-0.053,67.417-27.588,71.528-64h328.472c4.418,0,8-3.582,8-8s-3.582-8-8-8
		H143.561C139.142,24.514,103.525-3.94,64.006,0.478S-3.966,40.514,0.452,80.033C4.528,116.484,35.354,144.046,72.033,144.033
		L72.033,144.033z M72.033,16.033c30.928,0,56,25.072,56,56s-25.072,56-56,56s-56-25.072-56-56
		C16.068,41.119,41.119,16.068,72.033,16.033z"/>
</g>
<g>
</g>
<g>
</g>
<g>
</g>
<g>
</g>
<g>
</g>
<g>
</g>
<g>
</g>
<g>
</g>
<g>
</g>
<g>
</g>
<g>
</g>
<g>
</g>
<g>
</g>
<g>
</g>
<g>
</g>
</svg>
