<svg id="line" height="512" viewBox="0 0 64 64" width="512" xmlns="http://www.w3.org/2000/svg"><path d="m58 29.5h-3v-1a3 3 0 0 0 -3-3h-28a3 3 0 0 0 -3 3v17a9.011 9.011 0 0 0 9 9h16a9.012 9.012 0 0 0 8.778-7.039 9.009 9.009 0 0 0 8.222-8.961v-4a5.006 5.006 0 0 0 -5-5zm3 9a7 7 0 0 1 -6 6.92v-13.92h3a3 3 0 0 1 3 3z" fill="#c4a2fc"/><path d="m58 56.5h-40a1 1 0 0 0 -1 1 5.006 5.006 0 0 0 5 5h32a5.006 5.006 0 0 0 5-5 1 1 0 0 0 -1-1z" fill="#c4a2fc"/><g fill="#151a6a"><path d="m40 25.5h-5v-21a3 3 0 0 0 -3-3h-28a3 3 0 0 0 -3 3v42a5.006 5.006 0 0 0 5 5h32a5.006 5.006 0 0 0 5-5v-18a3 3 0 0 0 -3-3zm-37 21v-42a1 1 0 0 1 1-1h28a1 1 0 0 1 1 1v42a4.948 4.948 0 0 0 1.026 3h-28.026a3 3 0 0 1 -3-3zm38 0a3 3 0 0 1 -6 0v-19h5a1 1 0 0 1 1 1z"/><path d="m27 6.5h-18a3 3 0 0 0 -3 3v7a3 3 0 0 0 3 3h18a3 3 0 0 0 3-3v-7a3 3 0 0 0 -3-3zm1 10a1 1 0 0 1 -1 1h-18a1 1 0 0 1 -1-1v-7a1 1 0 0 1 1-1h18a1 1 0 0 1 1 1z"/><path d="m29 25.5h-22a1 1 0 0 0 0 2h22a1 1 0 0 0 0-2z"/><path d="m29 33.5h-22a1 1 0 0 0 0 2h22a1 1 0 0 0 0-2z"/><path d="m29 41.5h-22a1 1 0 0 0 0 2h22a1 1 0 0 0 0-2z"/></g></svg>