<svg id="Icons" height="512" viewBox="0 0 64 64" width="512" xmlns="http://www.w3.org/2000/svg"><circle cx="45.5" cy="34" fill="#c4a2fc" r="7"/><path d="m45.5 17a17.019 17.019 0 0 0 -17 17c0 16.312 15.73 28.3 16.4 28.8a1 1 0 0 0 1.2 0c.67-.5 16.4-12.488 16.4-28.8a17.019 17.019 0 0 0 -17-17zm11 18h-2.059a8.956 8.956 0 0 1 -1.916 4.611l1.46 1.46a1 1 0 0 1 -1.414 1.414l-1.46-1.46a8.956 8.956 0 0 1 -4.611 1.916v2.059a1 1 0 0 1 -2 0v-2.059a8.956 8.956 0 0 1 -4.611-1.916l-1.46 1.46a1 1 0 0 1 -1.414-1.414l1.46-1.46a8.956 8.956 0 0 1 -1.916-4.611h-2.059a1 1 0 0 1 0-2h2.059a8.956 8.956 0 0 1 1.916-4.611l-1.46-1.46a1 1 0 0 1 1.414-1.414l1.46 1.46a8.956 8.956 0 0 1 4.611-1.916v-2.059a1 1 0 0 1 2 0v2.059a8.956 8.956 0 0 1 4.611 1.916l1.46-1.46a1 1 0 0 1 1.414 1.414l-1.46 1.46a8.956 8.956 0 0 1 1.916 4.611h2.059a1 1 0 0 1 0 2z" fill="#c4a2fc"/><path d="m23.583 1a22.083 22.083 0 1 0 22.083 22.083 22.108 22.108 0 0 0 -22.083-22.083zm17.391 32.083h-6.2a36.672 36.672 0 0 0 1.3-9h7.546a19.916 19.916 0 0 1 -2.646 9zm-37.423-9h7.549a36.672 36.672 0 0 0 1.3 9h-6.2a19.916 19.916 0 0 1 -2.649-9zm2.641-11h6.2a36.672 36.672 0 0 0 -1.3 9h-7.541a19.916 19.916 0 0 1 2.641-9zm18.391-2v-7.983c2.96.565 5.6 3.606 7.339 7.983zm8.044 2a33.847 33.847 0 0 1 1.429 9h-9.473v-9zm-10.044-9.983v7.983h-7.339c1.743-4.377 4.379-7.418 7.339-7.983zm0 9.983v9h-9.473a33.847 33.847 0 0 1 1.429-9zm-9.473 11h9.473v9h-8.044a33.847 33.847 0 0 1 -1.429-9zm9.473 11v7.983c-2.96-.565-5.6-3.606-7.339-7.983zm2 7.983v-7.983h7.339c-1.743 4.377-4.379 7.417-7.339 7.983zm0-9.983v-9h9.473a33.847 33.847 0 0 1 -1.429 9zm11.486-11a36.672 36.672 0 0 0 -1.3-9h6.2a19.916 19.916 0 0 1 2.641 9zm3.58-11h-5.519a19.867 19.867 0 0 0 -4.085-7 20.138 20.138 0 0 1 9.604 7zm-22.528-7a19.867 19.867 0 0 0 -4.085 7h-5.519a20.138 20.138 0 0 1 9.604-6.997zm-9.6 31h5.519a19.867 19.867 0 0 0 4.085 7 20.138 20.138 0 0 1 -9.608-7zm22.528 7a19.867 19.867 0 0 0 4.085-7h5.519a20.138 20.138 0 0 1 -9.608 6.997z" fill="#151a6a"/></svg>