<svg id="Icons" height="512" viewBox="0 0 64 64" width="512" xmlns="http://www.w3.org/2000/svg"><rect fill="#c4a2fc" height="12" rx="3" width="28" x="31.5" y="16"/><path d="m28.5 41h34v15h-34z" fill="#c4a2fc"/><path d="m33.5 63h24a5.006 5.006 0 0 0 5-5h-34a5.006 5.006 0 0 0 5 5z" fill="#c4a2fc"/><path d="m58.84 32.84a6.868 6.868 0 0 1 -2.261-2.84h-22.158a6.868 6.868 0 0 1 -2.261 2.84 8.872 8.872 0 0 0 -3.6 6.16h33.879a8.872 8.872 0 0 0 -3.599-6.16z" fill="#c4a2fc"/><g fill="#151a6a"><path d="m32.5 1h-28a3 3 0 0 0 -3 3v44a3 3 0 0 0 3 3h28a3 3 0 0 0 3-3v-44a3 3 0 0 0 -3-3zm1 47a1 1 0 0 1 -1 1h-28a1 1 0 0 1 -1-1v-44a1 1 0 0 1 1-1h28a1 1 0 0 1 1 1z"/><path d="m11.5 21a5 5 0 1 0 5 5 5.006 5.006 0 0 0 -5-5zm0 8a3 3 0 1 1 3-3 3 3 0 0 1 -3 3z"/><path d="m25.5 21a5 5 0 1 0 5 5 5.006 5.006 0 0 0 -5-5zm0 8a3 3 0 1 1 3-3 3 3 0 0 1 -3 3z"/><path d="m11.5 7a5 5 0 1 0 5 5 5.006 5.006 0 0 0 -5-5zm0 8a3 3 0 1 1 3-3 3 3 0 0 1 -3 3z"/><path d="m25.5 7a5 5 0 1 0 5 5 5.006 5.006 0 0 0 -5-5zm0 8a3 3 0 1 1 3-3 3 3 0 0 1 -3 3z"/><path d="m11.5 35a5 5 0 1 0 5 5 5.006 5.006 0 0 0 -5-5zm0 8a3 3 0 1 1 3-3 3 3 0 0 1 -3 3z"/><path d="m25.5 35a5 5 0 1 0 5 5 5.006 5.006 0 0 0 -5-5zm0 8a3 3 0 1 1 3-3 3 3 0 0 1 -3 3z"/><path d="m46.5 1a5.006 5.006 0 0 0 -5 5v12a5 5 0 0 0 10 0v-12a5.006 5.006 0 0 0 -5-5zm0 2a3 3 0 0 1 3 3v6h-6v-6a3 3 0 0 1 3-3zm0 18a3 3 0 0 1 -3-3v-4h6v4a3 3 0 0 1 -3 3z"/><path d="m46.5 29a5.006 5.006 0 0 0 -5 5v12a5 5 0 0 0 10 0v-12a5.006 5.006 0 0 0 -5-5zm0 2a3 3 0 0 1 3 3v5h-6v-5a3 3 0 0 1 3-3zm0 18a3 3 0 0 1 -3-3v-5h6v5a3 3 0 0 1 -3 3z"/></g></svg>