<svg id="Icons" height="512" viewBox="0 0 64 64" width="512" xmlns="http://www.w3.org/2000/svg"><path d="m60.728 47.362a4.061 4.061 0 0 0 -4.472-.784 1.338 1.338 0 0 1 -1.21 0l-.17-.1a1.216 1.216 0 0 1 -.575-1.417 11.618 11.618 0 0 0 0-6.62 1.209 1.209 0 0 1 .549-1.4l.2-.114a1.344 1.344 0 0 1 1.213 0 4.091 4.091 0 0 0 5.571-4.9 4.094 4.094 0 0 0 -8.006.747 1.256 1.256 0 0 1 -.6.993l-.2.116a1.211 1.211 0 0 1 -1.483-.222 11.7 11.7 0 0 0 -5.745-3.318 1.221 1.221 0 0 1 -.935-1.194v-.17a1.352 1.352 0 0 1 .6-1.09 4.1 4.1 0 1 0 -4.816.03 1.26 1.26 0 0 1 .56 1.017v.234a1.2 1.2 0 0 1 -.92 1.169 11.713 11.713 0 0 0 -5.758 3.317 1.209 1.209 0 0 1 -1.481.22l-.2-.113a1.338 1.338 0 0 1 -.609-1.047 4.091 4.091 0 0 0 -7.031-2.373 4.094 4.094 0 0 0 4.649 6.56 1.256 1.256 0 0 1 1.161.022l.2.117a1.207 1.207 0 0 1 .547 1.4 11.588 11.588 0 0 0 0 6.618 1.21 1.21 0 0 1 -.548 1.4l-.2.114a1.339 1.339 0 0 1 -1.212 0 4.092 4.092 0 0 0 -5.571 4.9 4.094 4.094 0 0 0 8.005-.746 1.26 1.26 0 0 1 .6-.995l.2-.116a1.211 1.211 0 0 1 1.482.222 11.7 11.7 0 0 0 5.757 3.316 1.2 1.2 0 0 1 .92 1.174v.186a1.352 1.352 0 0 1 -.6 1.09 4.1 4.1 0 1 0 4.817-.03 1.262 1.262 0 0 1 -.561-1.017v-.234a1.2 1.2 0 0 1 .919-1.169 11.7 11.7 0 0 0 5.757-3.316 1.21 1.21 0 0 1 1.487-.22l.162.094a1.274 1.274 0 0 1 .633 1.013 4.1 4.1 0 1 0 6.906-3.372zm-21 1.348a1.653 1.653 0 1 1 1.653-1.653 1.653 1.653 0 0 1 -1.65 1.653zm1.656-8.61a2.48 2.48 0 1 1 2.48-2.48 2.479 2.479 0 0 1 -2.48 2.48zm5.786 4.786a2.48 2.48 0 1 1 2.48-2.48 2.481 2.481 0 0 1 -2.48 2.478z" fill="#c4a2fc"/><path d="m52.03 38.519-3.2-19.429a8.963 8.963 0 0 0 -8.271-7.516l-.142-.01a8.927 8.927 0 0 0 -8.64 4.907l-1.714-1.713v-10.758a3 3 0 0 0 -6 0v10.758l-1.714 1.714a8.949 8.949 0 0 0 -8.64-4.908l-.141.01a8.962 8.962 0 0 0 -8.268 7.516l-3.2 19.429a7 7 0 0 0 6.9 8.138c.112 0 3.311-.148 3.311-.148a12.056 12.056 0 0 0 11.429-12.35l-.312-10.278 3.639-3.639 3.64 3.639-.317 10.278a12.056 12.056 0 0 0 11.429 12.35s3.2.148 3.311.148a7 7 0 0 0 6.9-8.138zm-30.295-4.3a10.046 10.046 0 0 1 -9.523 10.292l-2.975.14a5 5 0 0 1 -5.17-5.807l3.2-19.429a6.976 6.976 0 0 1 6.433-5.846l.141-.01a7.02 7.02 0 0 1 6.971 4.446l-5.46 5.459a3 3 0 0 0 4.248 4.243l1.882-1.883zm4.62-16.1-8.172 8.172a1 1 0 0 1 -1.414-1.414l9-9a1 1 0 0 0 .293-.707v-11.17a1 1 0 0 1 2 0v11.172a1 1 0 0 0 .293.707l9 9a1 1 0 0 1 -1.414 1.414l-8.172-8.172a1 1 0 0 0 -1.414 0zm18.533 26.53-2.975-.14a10.046 10.046 0 0 1 -9.523-10.29l.254-8.395 1.883 1.883a3 3 0 0 0 4.242-4.242l-5.461-5.465a6.945 6.945 0 0 1 6.972-4.444l.143.01a6.973 6.973 0 0 1 6.433 5.846l3.2 19.429a5 5 0 0 1 -5.168 5.81z" fill="#151a6a"/></svg>