<svg id="Icons" height="512" viewBox="0 0 64 64" width="512" xmlns="http://www.w3.org/2000/svg"><g fill="#c4a2fc"><path d="m44 42a3.486 3.486 0 0 0 -1.722 6.525 1 1 0 0 1 .5.986l-.653 5.489h3.75l-.65-5.489a1 1 0 0 1 .5-.986 3.486 3.486 0 0 0 -1.725-6.525z"/><path d="m58 34h-28a5.006 5.006 0 0 0 -5 5v19a5.006 5.006 0 0 0 5 5h28a5.006 5.006 0 0 0 5-5v-19a5.006 5.006 0 0 0 -5-5zm-10.007 21.882a1 1 0 0 1 -.993 1.118h-6a1 1 0 0 1 -.993-1.118l.71-5.993a5.5 5.5 0 1 1 6.566 0z"/><path d="m44 26.6a5.4 5.4 0 0 1 5.4 5.4h3.6a9 9 0 0 0 -18 0h3.6a5.4 5.4 0 0 1 5.4-5.4z"/></g><path d="m44.472 21.049-19.172-19.172a3 3 0 0 0 -4.242 0l-19.172 19.172a3 3 0 0 0 2.122 5.121h2.171v15a3 3 0 0 0 3 3h28a3 3 0 0 0 3-3v-15h2.172a3 3 0 0 0 2.121-5.121zm-15.293 21.121v-8a1 1 0 0 0 -2 0v8h-8v-8a1 1 0 0 0 -2 0v8h-3v-11a3 3 0 0 1 3-3h12a3 3 0 0 1 3 3v11zm13.172-18h-3.172a1 1 0 0 0 -1 1v16a1 1 0 0 1 -1 1h-3v-11a5.006 5.006 0 0 0 -5-5h-12a5.007 5.007 0 0 0 -5 5v11h-3a1 1 0 0 1 -1-1v-16a1 1 0 0 0 -1-1h-3.171a1 1 0 0 1 -.708-1.707l19.172-19.171a1 1 0 0 1 1.414 0l19.172 19.171a1 1 0 0 1 -.707 1.707z" fill="#151a6a"/><path d="m23.179 10.17a7 7 0 1 0 7 7 7.009 7.009 0 0 0 -7-7zm0 12a5 5 0 1 1 5-5 5.006 5.006 0 0 1 -5 5z" fill="#151a6a"/></svg>