<svg id="Icons" height="512" viewBox="0 0 64 64" width="512" xmlns="http://www.w3.org/2000/svg"><path d="m42.3 13.4a1.037 1.037 0 0 0 -1.6 0c-.661.882-16.2 21.725-16.2 32.6a17 17 0 0 0 34 0c0-10.875-15.539-31.718-16.2-32.6zm-1.8 45.6a1 1 0 0 1 0-2 12.013 12.013 0 0 0 12-12 1 1 0 0 1 2 0 14.015 14.015 0 0 1 -14 14z" fill="#c4a2fc"/><path d="m42.125 31.037a23.843 23.843 0 0 1 -6.748-12.737l-1.84-10.033a8.868 8.868 0 0 0 -17.444 0l-1.841 10.033a23.835 23.835 0 0 1 -6.747 12.737 6.737 6.737 0 0 0 4.721 11.519h5.3a8.191 8.191 0 0 0 14.568 0h5.3a6.738 6.738 0 0 0 4.731-11.519zm-4.725 9.519h-4.3l1.5-3a1 1 0 0 0 -1.789-.895l-2.457 4.914a6.191 6.191 0 0 1 -11.075 0l-2.456-4.914a1 1 0 0 0 -1.79.895l1.5 3h-4.3a4.734 4.734 0 0 1 -3.318-8.094 25.836 25.836 0 0 0 7.311-13.8l1.84-10.03a6.868 6.868 0 0 1 13.511 0l1.84 10.03a25.836 25.836 0 0 0 7.311 13.8 4.734 4.734 0 0 1 -3.328 8.094z" fill="#151a6a"/></svg>