<svg id="Icons" height="512" viewBox="0 0 64 64" width="512" xmlns="http://www.w3.org/2000/svg"><path d="m37 46h-7v-26a1 1 0 0 0 -1-1h-10a1 1 0 0 0 -1 1v26h-7a1 1 0 0 0 -.756 1.655l13 15a1 1 0 0 0 1.512 0l13-15a1 1 0 0 0 -.756-1.655z" fill="#c4a2fc"/><path d="m61.756 34.345-13-15a1.034 1.034 0 0 0 -1.512 0l-13 15a1 1 0 0 0 .756 1.655h7v26a1 1 0 0 0 1 1h10a1 1 0 0 0 1-1v-26h7a1 1 0 0 0 .756-1.655z" fill="#c4a2fc"/><g fill="#151a6a"><path d="m47.057 3.482a8.53 8.53 0 0 0 -11.595-.4l-25.23 21.94a4.985 4.985 0 0 0 -1.463 5.355l.657 1.97a3 3 0 0 1 -.626 2.963l-5.72 6.29a4.147 4.147 0 0 0 5.858 5.857l6.291-5.72a3 3 0 0 1 2.966-.626l1.972.658a4.988 4.988 0 0 0 5.355-1.463l21.939-25.229a8.533 8.533 0 0 0 -.404-11.595zm-1.414 1.418a6.519 6.519 0 0 1 .928 8l-8.931-8.935a6.5 6.5 0 0 1 8.003.935zm-41.012 41.009a2.143 2.143 0 0 1 -.07-2.962l.639-.707 3.1 3.095-.708.644a2.144 2.144 0 0 1 -2.961-.07zm19.381-6.909a2.994 2.994 0 0 1 -3.212.877l-1.972-.657a5 5 0 0 0 -4.945 1.044l-4.1 3.728-3.23-3.23 3.729-4.1a5 5 0 0 0 1.043-4.944l-.657-1.971a2.991 2.991 0 0 1 .878-3.213l24.511-21.323 9.271 9.27z"/><path d="m39.278 11.26a1 1 0 0 0 -1.414 0l-2.121 2.122-1.414-1.415a1 1 0 1 0 -1.414 1.414l1.414 1.419-4.243 4.242-1.414-1.414a1 1 0 0 0 -1.414 1.414l1.414 1.414-4.242 4.244-1.414-1.414a1 1 0 1 0 -1.416 1.414l1.414 1.414-4.243 4.243-1.415-1.414a1 1 0 1 0 -1.414 1.414l1.415 1.414-2.122 2.122a1 1 0 1 0 1.416 1.407l2.122-2.122 1.415 1.422a1 1 0 0 0 1.412-1.419l-1.415-1.415 4.243-4.242 1.414 1.414a1 1 0 1 0 1.414-1.414l-1.412-1.414 4.243-4.244 1.413 1.415a1 1 0 0 0 1.414-1.414l-1.414-1.415 4.242-4.242 1.414 1.414a1 1 0 1 0 1.414-1.414l-1.413-1.41 2.121-2.122a1 1 0 0 0 0-1.418z"/></g></svg>