<svg id="Icons" height="512" viewBox="0 0 64 64" width="512" xmlns="http://www.w3.org/2000/svg"><g fill="#c4a2fc"><path d="m46.581 43.812c-3.831 2.757-7.612 2.294-11.568-.281a11 11 0 0 0 21.837 1.293c-4.298-3.365-7.557-2.964-10.269-1.012z"/><path d="m53 27.514v-8.514h-14v8.514a17 17 0 1 0 14 0zm-7 28.486a13.009 13.009 0 0 1 -12.912-14.52 1 1 0 0 1 1.656-.632c3.3 2.9 7.106 3.9 10.669 1.34 4.4-3.171 9.38-1.909 13 1.351a1 1 0 0 1 .5.979 12.992 12.992 0 0 1 -12.913 11.482z"/><rect height="6" rx="3" width="20" x="36" y="11"/></g><path d="m47 13h-11v-3.184a2.993 2.993 0 0 0 -1-5.816h-8a2.993 2.993 0 0 0 -1 5.816v3.184h-8v-3.184a2.993 2.993 0 0 0 -1-5.816h-8a2.993 2.993 0 0 0 -1 5.816v3.184h-4a3 3 0 0 0 -3 3v2a3 3 0 0 0 3 3h4v12a5 5 0 0 0 10 0v-12h8v12a5 5 0 0 0 10 0v-12h6v19h-38a3 3 0 0 0 -3 3v4a3 3 0 0 0 3 3h43a3 3 0 0 0 3-3v-31a3 3 0 0 0 -3-3zm-20-7h8a1 1 0 0 1 0 2h-8a1 1 0 0 1 0-2zm1 4h6v3h-6zm-19-4h8a1 1 0 0 1 0 2h-8a1 1 0 0 1 0-2zm1 4h6v3h-6zm6 23a3 3 0 0 1 -6 0v-12h6zm18 0a3 3 0 0 1 -6 0v-12h6zm14 14a1 1 0 0 1 -1 1h-43a1 1 0 0 1 -1-1v-4a1 1 0 0 1 1-1h39a1 1 0 0 0 1-1v-21a1 1 0 0 0 -1-1h-39a1 1 0 0 1 -1-1v-2a1 1 0 0 1 1-1h43a1 1 0 0 1 1 1z" fill="#151a6a"/></svg>