<svg id="Icons" height="512" viewBox="0 0 64 64" width="512" xmlns="http://www.w3.org/2000/svg"><g fill="#c4a2fc"><path d="m38 27h13a4.5 4.5 0 0 0 0-9h-13a4.5 4.5 0 0 0 0 9z"/><path d="m31.5 53h26v-11h-26z"/><path d="m54.155 32.233a5.7 5.7 0 0 1 -2.217-2.659.969.969 0 0 0 -.905-.574h-13.066a.969.969 0 0 0 -.905.574 5.7 5.7 0 0 1 -2.217 2.659 7.5 7.5 0 0 0 -3.345 6.367v1.4h26v-1.4a7.511 7.511 0 0 0 -3.345-6.367z"/><path d="m31.5 58.008a4.994 4.994 0 0 0 5 4.992h16a5 5 0 0 0 5-5v-3h-26z"/></g><path d="m54.876 8.949-7.071-7.071a3 3 0 1 0 -4.243 4.242l.708.707-2.829 2.829-.707-.707a3.07 3.07 0 0 0 -4.242 0l-19.8 19.8a5.01 5.01 0 0 0 -.635 6.293l-1.486 1.486a2 2 0 0 0 0 2.828l.708.707-8.486 8.484a1 1 0 1 0 1.414 1.414l8.486-8.486.707.707a2 2 0 0 0 2.828 0l1.486-1.482a5.006 5.006 0 0 0 6.292-.636l19.8-19.8a3 3 0 0 0 0-4.243l-.707-.707 2.829-2.829.707.707a3 3 0 0 0 4.242-4.242zm-36.061 31.82-2.83-2.829 1.415-1.414 2.83 2.829zm7.777-2.122a3.005 3.005 0 0 1 -4.243 0l-4.243-4.242a3.006 3.006 0 0 1 0-4.244l12.022-12.02 8.485 8.485zm19.8-19.8-6.364 6.364-8.485-8.485 6.364-6.364a1.023 1.023 0 0 1 1.414 0l7.071 7.071a1 1 0 0 1 -.001 1.415zm-.707-4.95-2.83-2.827 2.829-2.829 2.828 2.829zm7.778-2.121a1.025 1.025 0 0 1 -1.414 0l-7.072-7.07a1 1 0 0 1 1.414-1.414l7.071 7.071a1 1 0 0 1 0 1.414z" fill="#151a6a"/></svg>