<svg id="Icons" height="512" viewBox="0 0 64 64" width="512" xmlns="http://www.w3.org/2000/svg"><g fill="#c4a2fc"><circle cx="49" cy="40" r="2"/><circle cx="41.5" cy="29.5" r="1.944"/><path d="m62 35h-5c-.012 0-.021.006-.033.007a28.612 28.612 0 0 0 -1.374-8.007l3.691-2.132a1 1 0 0 0 -1-1.732l-3.4 1.963a19 19 0 0 0 -3.342-5.356l2.324-4.025a1 1 0 0 0 -1.732-1l-2.079 3.6a9.829 9.829 0 0 0 -5.055-2.24v-4.078a1 1 0 0 0 -2 0v4.078a9.829 9.829 0 0 0 -5.055 2.238l-2.079-3.6a1 1 0 1 0 -1.732 1l2.324 4.025a19 19 0 0 0 -3.342 5.359l-3.4-1.963a1 1 0 0 0 -1 1.732l3.691 2.131a28.612 28.612 0 0 0 -1.374 8.009c-.012 0-.021-.007-.033-.007h-5a1 1 0 0 0 0 2h5c.012 0 .021-.006.033-.007a28.612 28.612 0 0 0 1.374 8.005l-3.691 2.132a1 1 0 1 0 1 1.732l3.4-1.963a19 19 0 0 0 3.342 5.356l-2.324 4.025a1 1 0 0 0 1.732 1l2.079-3.6a9.829 9.829 0 0 0 5.055 2.24v4.078a1 1 0 0 0 2 0v-4.078a9.829 9.829 0 0 0 5.055-2.238l2.079 3.6a1 1 0 0 0 1.732-1l-2.324-4.025a19 19 0 0 0 3.342-5.359l3.4 1.963a1 1 0 0 0 1-1.732l-3.691-2.131a28.612 28.612 0 0 0 1.374-8.009c.012 0 .021.007.033.007h5a1 1 0 0 0 0-2zm-22 13a2 2 0 1 1 2-2 2 2 0 0 1 -2 2zm1.5-15a3.5 3.5 0 1 1 3.5-3.5 3.5 3.5 0 0 1 -3.5 3.5zm7.5 11a4 4 0 1 1 4-4 4 4 0 0 1 -4 4z"/></g><path d="m44.007 7.621a15.768 15.768 0 0 0 -22.984 21.571l-1.671 1.671a4.006 4.006 0 0 0 -5 .525l-12.182 12.178a4.007 4.007 0 0 0 0 5.66l.235.233a4 4 0 0 0 5.656 0l12.18-12.179a4.006 4.006 0 0 0 .525-5l1.669-1.67a15.769 15.769 0 0 0 21.572-22.989zm-25.18 28.245-12.179 12.179a2.047 2.047 0 0 1 -2.828 0l-.235-.233a2 2 0 0 1 0-2.83l12.177-12.182a2 2 0 0 1 2.828 0l.237.236a2 2 0 0 1 0 2.83zm23.766-7.345a13.778 13.778 0 1 1 0-19.486 13.77 13.77 0 0 1 0 19.486z" fill="#151a6a"/><path d="m40.524 11.1a10.852 10.852 0 1 0 0 15.347 10.846 10.846 0 0 0 0-15.347zm-1.414 13.937a8.852 8.852 0 1 1 0-12.518 8.847 8.847 0 0 1 0 12.518z" fill="#151a6a"/></svg>