<svg id="Icons" height="512" viewBox="0 0 64 64" width="512" xmlns="http://www.w3.org/2000/svg"><circle cx="37" cy="48" fill="#c4a2fc" r="2"/><circle cx="45.5" cy="32.5" fill="#c4a2fc" r="2.5"/><path d="m59 34h-2.443a18.7 18.7 0 0 0 -2.6-6.3l1.725-1.725a4 4 0 0 0 -5.657-5.657l-1.725 1.729a18.7 18.7 0 0 0 -6.3-2.6v-2.447a4 4 0 0 0 -8 0v2.443a18.7 18.7 0 0 0 -6.3 2.6l-1.725-1.725a4 4 0 0 0 -5.657 5.657l1.729 1.725a18.7 18.7 0 0 0 -2.6 6.3h-2.447a4 4 0 0 0 0 8h2.443a18.7 18.7 0 0 0 2.6 6.3l-1.725 1.725a4 4 0 0 0 5.657 5.657l1.725-1.729a18.7 18.7 0 0 0 6.3 2.6v2.447a4 4 0 0 0 8 0v-2.443a18.7 18.7 0 0 0 6.3-2.6l1.725 1.725a4 4 0 0 0 5.657-5.657l-1.729-1.725a18.7 18.7 0 0 0 2.6-6.3h2.447a4 4 0 0 0 0-8zm-31.5 5a1.5 1.5 0 1 1 1.5-1.5 1.5 1.5 0 0 1 -1.5 1.5zm9.5 13a4 4 0 1 1 4-4 4 4 0 0 1 -4 4zm8.5-15a4.5 4.5 0 1 1 4.5-4.5 4.505 4.505 0 0 1 -4.5 4.5z" fill="#c4a2fc"/><g fill="#151a6a"><path d="m50 23a1 1 0 0 0 -1 1v.941h-6.054a16.906 16.906 0 0 0 -4.3-10.259l4.28-4.28.749.749a1 1 0 0 0 1.414-1.414l-2.826-2.829a1 1 0 0 0 -1.414 1.414l.666.666-4.284 4.284a16.9 16.9 0 0 0 -10.172-4.218v-6.054h.941a1 1 0 0 0 0-2h-4a1 1 0 0 0 0 2h1.059v6.048a16.9 16.9 0 0 0 -10.29 4.224l-4.284-4.284.666-.666a1 1 0 0 0 -1.414-1.414l-2.829 2.829a1 1 0 0 0 1.414 1.414l.749-.749 4.28 4.28a16.906 16.906 0 0 0 -4.3 10.259h-6.051v-.941a1 1 0 0 0 -2 0v4a1 1 0 0 0 2 0v-1.059h6.048a16.9 16.9 0 0 0 4.224 10.29l-4.284 4.284-.666-.666a1 1 0 0 0 -1.414 1.414l2.829 2.829a1 1 0 0 0 1.414-1.414l-.749-.749 4.28-4.28a16.9 16.9 0 0 0 10.377 4.3v6.051h-1.059a1 1 0 0 0 0 2h4a1 1 0 0 0 0-2h-.941v-6.054a16.906 16.906 0 0 0 10.259-4.3l4.28 4.28-.749.749a1 1 0 0 0 1.414 1.414l2.829-2.829a1 1 0 0 0 -1.414-1.414l-.666.666-4.284-4.284a16.9 16.9 0 0 0 4.224-10.29h6.048v1.062a1 1 0 0 0 2 0v-4a1 1 0 0 0 -1-1zm-24 18a15 15 0 1 1 15-15 15.017 15.017 0 0 1 -15 15z"/><path d="m22 15a4 4 0 1 0 4 4 4 4 0 0 0 -4-4zm0 6a2 2 0 1 1 2-2 2 2 0 0 1 -2 2z"/><path d="m30.5 27a4.5 4.5 0 1 0 4.5 4.5 4.505 4.505 0 0 0 -4.5-4.5zm0 7a2.5 2.5 0 1 1 2.5-2.5 2.5 2.5 0 0 1 -2.5 2.5z"/><circle cx="19.5" cy="32.5" r="1.5"/><circle cx="32.5" cy="19.5" r="1.5"/></g></svg>